<?xml version="1.0" encoding="UTF-8"?>
<svg xmlns="http://www.w3.org/2000/svg" version="1.1" viewBox="0 0 170 81.71">
  <defs>
    <style>
      .cls-1 {
        fill: #d4edfc;
      }

      .cls-2 {
        fill: #1d1d1b;
      }

      .cls-3 {
        fill: #d3ecfb;
      }
    </style>
  </defs>
  <!-- Generator: Adobe Illustrator 28.6.0, SVG Export Plug-In . SVG Version: 1.2.0 Build 709)  -->
  <g>
    <g id="Layer_1">
      <g>
        <rect class="cls-3" width="170" height="81.71"/>
        <rect class="cls-3" width="170" height="81.71"/>
        <rect class="cls-3" width="170" height="81.71"/>
        <rect class="cls-3" width="170" height="81.71"/>
        <rect class="cls-3" width="170" height="81.71"/>
        <rect class="cls-3" width="170" height="81.71"/>
        <rect class="cls-1" width="170" height="81.71"/>
      </g>
      <g>
        <path class="cls-2" d="M20.6,63.12v-16.39h1.97v14.61h8.29v1.78h-10.26Z"/>
        <path class="cls-2" d="M34.4,49.88c-.41,0-.75-.13-1.02-.4-.27-.26-.41-.6-.41-1.01s.14-.76.41-1.03c.27-.27.61-.4,1.02-.4s.74.13,1.01.4c.27.27.4.61.4,1.03s-.13.74-.4,1.01c-.27.27-.6.4-1.01.4ZM33.46,63.12v-11.45h1.85v11.45h-1.85Z"/>
        <path class="cls-2" d="M38.64,57.45v-.33c0-1.2.24-2.23.73-3.09.48-.86,1.14-1.52,1.97-1.99.83-.47,1.73-.7,2.72-.7,1.2,0,2.13.23,2.77.69.65.46,1.13.97,1.44,1.53h.33v-1.9h1.76v14.12c0,.62-.17,1.12-.52,1.48-.34.36-.84.54-1.5.54h-7.78v-1.64h7.28c.47,0,.7-.23.7-.7v-4.36h-.33c-.19.34-.45.68-.8,1.01-.34.33-.79.6-1.33.81-.55.21-1.23.32-2.04.32-.98,0-1.89-.23-2.72-.7-.83-.47-1.48-1.14-1.97-2-.48-.87-.73-1.89-.73-3.08ZM44.54,61.59c1.19,0,2.15-.37,2.89-1.12.74-.75,1.11-1.78,1.11-3.09v-.19c0-1.33-.37-2.36-1.11-3.1-.74-.74-1.71-1.11-2.89-1.11s-2.14.37-2.89,1.11c-.76.74-1.14,1.78-1.14,3.1v.19c0,1.31.38,2.34,1.14,3.09s1.72,1.12,2.89,1.12Z"/>
        <path class="cls-2" d="M54.23,63.12v-16.39h1.85v6.77h.33c.16-.34.39-.67.71-.97.32-.3.73-.56,1.24-.76.51-.2,1.15-.3,1.93-.3.86,0,1.63.18,2.31.55.68.37,1.22.9,1.63,1.59.41.7.61,1.56.61,2.59v6.93h-1.85v-6.79c0-1.14-.29-1.97-.85-2.48-.57-.52-1.34-.77-2.31-.77-1.11,0-2.01.36-2.7,1.08-.7.72-1.04,1.79-1.04,3.21v5.76h-1.85Z"/>
        <path class="cls-2" d="M72.48,63.12c-.66,0-1.16-.18-1.51-.54s-.53-.85-.53-1.48v-7.82h-3.44v-1.62h3.44v-4.08h1.85v4.08h3.75v1.62h-3.75v7.54c0,.47.23.7.68.7h2.55v1.59h-3.04Z"/>
        <path class="cls-2" d="M89.67,63.44c-1.42,0-2.62-.33-3.59-.98-.98-.66-1.57-1.69-1.77-3.11l1.76-.4c.12.75.36,1.34.7,1.77s.77.73,1.28.91c.51.18,1.05.27,1.63.27.86,0,1.54-.17,2.04-.52.5-.34.75-.8.75-1.38s-.24-1.01-.71-1.25c-.48-.24-1.13-.44-1.96-.6l-.96-.16c-.73-.12-1.41-.32-2.01-.59-.61-.27-1.09-.62-1.45-1.08-.36-.45-.54-1.02-.54-1.71,0-1.03.4-1.83,1.2-2.41.8-.58,1.85-.87,3.16-.87s2.35.29,3.15.88,1.32,1.41,1.56,2.47l-1.73.45c-.14-.83-.48-1.41-1.01-1.74-.53-.34-1.19-.5-1.97-.5s-1.4.14-1.85.43c-.45.29-.68.71-.68,1.28s.21.95.64,1.21,1,.45,1.72.57l.96.16c.81.14,1.54.33,2.19.57.65.24,1.16.59,1.55,1.04.38.45.57,1.05.57,1.78,0,1.12-.42,1.99-1.25,2.6-.84.61-1.96.91-3.36.91Z"/>
        <path class="cls-2" d="M97.4,63.12v-16.39h1.85v6.77h.33c.16-.34.39-.67.71-.97s.73-.56,1.24-.76c.51-.2,1.15-.3,1.93-.3.86,0,1.63.18,2.31.55.68.37,1.22.9,1.63,1.59.41.7.61,1.56.61,2.59v6.93h-1.85v-6.79c0-1.14-.29-1.97-.86-2.48-.57-.52-1.34-.77-2.31-.77-1.11,0-2.01.36-2.7,1.08-.7.72-1.04,1.79-1.04,3.21v5.76h-1.85Z"/>
        <path class="cls-2" d="M112.69,49.88c-.41,0-.75-.13-1.02-.4-.27-.26-.41-.6-.41-1.01s.14-.76.41-1.03c.27-.27.61-.4,1.02-.4s.74.13,1.01.4c.27.27.4.61.4,1.03s-.13.74-.4,1.01c-.27.27-.6.4-1.01.4ZM111.75,63.12v-11.45h1.85v11.45h-1.85Z"/>
        <path class="cls-2" d="M122.74,63.44c-1.16,0-2.17-.25-3.04-.74-.87-.49-1.55-1.18-2.04-2.07s-.73-1.92-.73-3.09v-.28c0-1.19.24-2.22.73-3.11s1.16-1.58,2.01-2.07c.86-.49,1.84-.74,2.95-.74s2.03.23,2.86.69c.83.46,1.47,1.12,1.94,1.98.47.86.7,1.87.7,3.02v.84h-9.34c.05,1.23.45,2.2,1.2,2.89.75.7,1.69,1.04,2.81,1.04.98,0,1.74-.23,2.27-.68.53-.45.94-.99,1.22-1.62l1.59.77c-.23.48-.56.97-.97,1.45s-.95.89-1.62,1.22c-.66.33-1.51.49-2.54.49ZM118.8,56.35h7.45c-.06-1.06-.43-1.89-1.09-2.48-.66-.59-1.51-.89-2.54-.89s-1.9.3-2.58.89c-.67.59-1.09,1.42-1.24,2.48Z"/>
        <path class="cls-2" d="M131.35,63.12v-16.39h1.85v16.39h-1.85Z"/>
        <path class="cls-2" d="M141.94,63.44c-.98,0-1.89-.23-2.72-.7-.83-.47-1.48-1.15-1.97-2.04-.48-.89-.73-1.94-.73-3.16v-.3c0-1.22.24-2.27.73-3.15.48-.88,1.14-1.56,1.96-2.04.82-.48,1.73-.71,2.73-.71.8,0,1.47.11,2.03.32.55.21,1,.48,1.35.8.34.32.61.66.8,1.02h.33v-6.74h1.85v16.39h-1.8v-1.9h-.33c-.31.58-.8,1.09-1.45,1.55-.66.45-1.58.68-2.76.68ZM142.43,61.8c1.19,0,2.15-.38,2.89-1.14.74-.76,1.11-1.81,1.11-3.17v-.21c0-1.36-.37-2.42-1.11-3.17-.74-.76-1.71-1.14-2.89-1.14s-2.13.38-2.89,1.14-1.14,1.81-1.14,3.17v.21c0,1.36.38,2.42,1.14,3.17.76.76,1.72,1.14,2.89,1.14Z"/>
      </g>
      <g>
        <g>
          <path class="cls-2" d="M65.95,31.97l-5.32-14.14h-5.02v4.45c.65.03,1.37.21,2.01.63.68.45,1.27,1.22,1.65,2.17.64,1.61,3.76,10.11,5.19,14.04h4.84v-4.26c-1.06,0-2.4-.39-3.34-2.89Z"/>
          <path class="cls-2" d="M56.6,24.45c-.31-.21-.67-.29-.99-.32v14.99h4.23v-7.22c-1.04-2.82-1.98-5.35-2.29-6.13-.24-.59-.59-1.08-.95-1.32Z"/>
          <path class="cls-2" d="M65.06,25.05c1.04,2.82,1.98,5.35,2.29,6.13.24.59.59,1.08.95,1.32.31.21.67.29.99.32v-14.99h-4.23v7.22Z"/>
          <polygon class="cls-2" points="120.96 17.74 116.81 17.74 116.81 39.2 120.96 39.2 120.96 32.13 120.96 32.13 120.96 17.74"/>
          <rect class="cls-2" x="90.53" y="17.81" width="4.44" height="21.46"/>
          <rect class="cls-2" x="74.23" y="17.81" width="4.15" height="21.46"/>
          <rect class="cls-2" x="80.23" y="26.09" width="4.6" height="4.14"/>
          <rect class="cls-2" x="80.23" y="17.81" width="7.64" height="4.22"/>
          <rect class="cls-2" x="140.92" y="35.12" width="7.36" height="4.14"/>
          <rect class="cls-2" x="140.92" y="17.8" width="7.36" height="4.14"/>
          <polygon class="cls-2" points="145.25 26.08 139.07 26.08 139.07 17.8 134.64 17.8 134.64 39.26 139.07 39.26 139.07 30.22 145.25 30.22 145.25 26.08"/>
          <rect class="cls-2" x="99.43" y="17.77" width="4.13" height="21.46"/>
          <path class="cls-2" d="M28.71,23.92l4.44-.31c-.14-3.45-2.53-5.82-5.66-6.09v4.24c.72.3,1.22,1.1,1.22,2.16Z"/>
          <path class="cls-2" d="M46.41,33.14c0,1.06-.61,1.93-1.52,2.2v4.2c3.33-.3,5.97-3,5.97-6.49v-15.24h-4.45v15.33Z"/>
          <path class="cls-2" d="M110.31,27.91c1.17-.67,2.12-2,2.12-4.05,0-4.17-3.28-6.1-6.53-6.1h-.49v4.01h.3c1.35,0,2.44.94,2.44,2.29s-.95,2.35-2.44,2.35h-.3v3.57h.79c1.23,0,2.63.82,2.63,2.57,0,1.63-1.11,2.66-2.63,2.66h-.79v4.01h1.1c3.62,0,6.59-2.66,6.59-6.52,0-2.76-1.59-4.36-2.79-4.79Z"/>
          <path class="cls-2" d="M130.71,24.52c0-4.26-3.25-6.78-6.65-6.78h-1.24v4.14h.66c1.44,0,2.79.74,2.79,2.61s-1.35,2.61-2.79,2.61h-.66v4.14h1.24c3.4,0,6.65-2.61,6.65-6.71Z"/>
          <path class="cls-2" d="M127.21,32.48c-1.01.4-2.07.6-3.15.6h-.33l2.24,6.12h4.87l-2.74-7.14c-.29.16-.59.29-.9.41Z"/>
          <path class="cls-2" d="M29.38,27.02c-.74-.24-2.42-.86-3.06-1.1-.98-.37-1.93-.95-1.93-2.24,0-1.07.59-1.69,1.25-1.93v-4.23c-3.1.29-5.72,2.71-5.72,6.22,0,2.48,1.25,5.02,4.44,6.12l2.54.95c1.29.49,2.11,1.23,2.11,2.36s-.61,1.91-1.53,2.15v4.19c3.37-.3,6.12-3.03,6.12-6.5,0-3-1.44-5.08-4.23-6Z"/>
          <path class="cls-2" d="M24.12,33.11l-4.44.22c.12,3.43,2.62,5.91,5.96,6.19v-4.22c-.9-.31-1.52-1.23-1.52-2.18Z"/>
          <path class="cls-2" d="M41.51,33.14v-15.33h-4.45v15.24c0,3.49,2.64,6.19,5.97,6.49v-4.2c-.92-.27-1.53-1.14-1.53-2.2Z"/>
        </g>
        <path class="cls-2" d="M152.36,15.1c-1.42,0-2.57,1.18-2.57,2.64s1.15,2.64,2.57,2.64,2.57-1.18,2.57-2.64-1.15-2.64-2.57-2.64ZM152.36,19.78c-1.09,0-1.97-.92-1.97-2.04s.89-2.04,1.97-2.04,1.97.92,1.97,2.04-.89,2.04-1.97,2.04Z"/>
        <path class="cls-2" d="M153.4,17.22v-.09c0-.51-.38-.87-.9-.87h-.97v2.93h.6v-1.09h.31l.38,1.09h.66l-.46-1.24c.23-.16.39-.41.39-.72ZM152.8,17.22c0,.16-.14.29-.3.29h-.38v-.67h.38c.16,0,.3.13.3.29v.09Z"/>
      </g>
    </g>
  </g>
</svg>